<?xml version="1.0" encoding="UTF-8" standalone="no"?>
<!-- Created with Inkscape (http://www.inkscape.org/) -->

<svg
   width="4371.1841"
   height="1673.5631"
   viewBox="0 0 1156.5424 442.7969"
   version="1.1"
   id="svg1"
   inkscape:version="1.3.2 (091e20ef0f, 2023-11-25)"
   sodipodi:docname="Redot Logo &amp; Wordmark - Horizontal - Red Orange (no outline).svg"
   xmlns:inkscape="http://www.inkscape.org/namespaces/inkscape"
   xmlns:sodipodi="http://sodipodi.sourceforge.net/DTD/sodipodi-0.dtd"
   xmlns:xlink="http://www.w3.org/1999/xlink"
   xmlns="http://www.w3.org/2000/svg"
   xmlns:svg="http://www.w3.org/2000/svg"
   xmlns:rdf="http://www.w3.org/1999/02/22-rdf-syntax-ns#"
   xmlns:cc="http://creativecommons.org/ns#"
   xmlns:dc="http://purl.org/dc/elements/1.1/">
  <sodipodi:namedview
     id="namedview1"
     pagecolor="#ffffff"
     bordercolor="#000000"
     borderopacity="0.25"
     inkscape:showpageshadow="2"
     inkscape:pageopacity="0.0"
     inkscape:pagecheckerboard="true"
     inkscape:deskcolor="#d1d1d1"
     inkscape:document-units="px"
     inkscape:zoom="0.1100553"
     inkscape:cx="99.949753"
     inkscape:cy="1108.5336"
     inkscape:window-width="1920"
     inkscape:window-height="938"
     inkscape:window-x="0"
     inkscape:window-y="0"
     inkscape:window-maximized="1"
     inkscape:current-layer="g5"
     showguides="true">
    <sodipodi:guide
       position="216.99102,370.48882"
       orientation="0,-1"
       id="guide1"
       inkscape:locked="false" />
    <sodipodi:guide
       position="72.306631,195.68117"
       orientation="1,0"
       id="guide2"
       inkscape:locked="false" />
    <sodipodi:guide
       position="216.86027,72.308045"
       orientation="0,-1"
       id="guide3"
       inkscape:locked="false" />
    <sodipodi:guide
       position="1084.3659,296.75161"
       orientation="1,0"
       id="guide4"
       inkscape:locked="false" />
    <sodipodi:guide
       position="572.75948,442.7969"
       orientation="0,-1"
       id="guide5"
       inkscape:locked="false" />
    <sodipodi:guide
       position="559.01325,-5.3954778e-06"
       orientation="0,-1"
       id="guide6"
       inkscape:locked="false" />
    <sodipodi:guide
       position="0,215.22046"
       orientation="1,0"
       id="guide7"
       inkscape:locked="false" />
    <sodipodi:guide
       position="1156.5425,296.61932"
       orientation="1,0"
       id="guide8"
       inkscape:locked="false" />
    <sodipodi:guide
       position="433.58631,296.7516"
       orientation="0,-1"
       id="guide9"
       inkscape:locked="false" />
    <sodipodi:guide
       position="433.58631,146.04525"
       orientation="0,-1"
       id="guide10"
       inkscape:locked="false" />
    <sodipodi:guide
       position="361.54202,195.68029"
       orientation="1,0"
       id="guide11"
       inkscape:locked="false" />
    <sodipodi:guide
       position="433.58628,283.64454"
       orientation="1,0"
       id="guide12"
       inkscape:locked="false" />
  </sodipodi:namedview>
  <defs
     id="defs1">
    <linearGradient
       inkscape:collect="always"
       xlink:href="#linearGradient51"
       id="linearGradient81"
       gradientUnits="userSpaceOnUse"
       gradientTransform="matrix(3.581102,0,0,3.5815399,-1531.3879,-1806.2679)"
       x1="460.70163"
       y1="533.83105"
       x2="521.85077"
       y2="595.22528" />
    <linearGradient
       id="linearGradient51"
       inkscape:collect="always">
      <stop
         style="stop-color:#ff1300;stop-opacity:1"
         offset="0"
         id="stop51" />
      <stop
         style="stop-color:#ff6e01;stop-opacity:1"
         offset="1"
         id="stop52" />
    </linearGradient>
  </defs>
  <g
     inkscape:label="Layer 1"
     inkscape:groupmode="layer"
     id="layer1">
    <g
       id="g5"
       inkscape:label="Logo">
      <path
         id="text40"
         style="font-weight:800;font-size:16.115px;font-family:Heebo;-inkscape-font-specification:'Heebo Ultra-Bold';letter-spacing:0px;fill:#ff1300;fill-opacity:1;stroke-width:0.259998;stroke-opacity:0.968628"
         inkscape:label="Wordmark"
         d="m 887.68568,143.97582 c -12.76754,0 -24.08991,3.03312 -33.95581,9.10569 -9.86912,6.00352 -17.59715,14.59607 -23.18729,25.77505 -5.51908,11.11002 -8.27702,24.39825 -8.27702,39.85565 v 5.47801 c 0,15.4574 2.79507,28.7821 8.38198,39.96112 5.59175,11.10999 13.31977,19.66603 23.18729,25.66958 9.93533,6.00355 21.28515,9.00019 34.05269,9.00019 12.76753,0 24.05115,-2.99664 33.85085,-9.00019 9.86751,-6.00355 17.55839,-14.55959 23.08071,-25.66958 5.58852,-11.17902 8.38359,-24.50372 8.38359,-39.96112 v -5.47801 c 0,-15.4574 -2.79507,-28.74563 -8.38359,-39.85565 -5.59014,-11.17898 -13.31977,-19.77153 -23.18567,-25.77505 -9.86913,-6.07257 -21.18343,-9.10569 -33.94773,-9.10569 z m -454.09938,2.06946 v 150.70635 h 35.09095 V 243.554 h 20.86532 l 26.64277,53.19763 h 37.57438 v -1.55012 l -31.61609,-60.90744 c 4.05455,-1.95205 7.75386,-4.16705 11.02042,-6.68724 4.82961,-3.79536 8.58867,-8.58429 11.28039,-14.38081 2.69173,-5.79652 4.03194,-12.97387 4.03194,-21.53065 0,-9.93689 -2.3058,-18.29018 -6.93035,-25.05279 -4.55349,-6.76262 -11.07694,-11.87192 -19.56548,-15.32221 -8.41911,-3.51933 -18.4917,-5.27514 -30.2242,-5.27514 z m 136.73877,0 v 150.70635 h 23.38912 11.79871 67.79859 V 268.49318 H 605.5129 v -35.49757 h 57.45151 V 205.66234 H 605.5129 v -31.2531 h 67.79859 V 146.04528 H 605.5129 593.71419 Z m 118.82998,0 v 150.70635 h 15.00392 20.1823 12.73363 c 13.6637,0 25.70462,-3.03314 36.12437,-9.10569 10.41975,-6.14155 18.59665,-14.63272 24.53396,-25.46668 5.93245,-10.903 8.90029,-23.49375 8.90029,-37.77804 v -5.90004 c 0,-14.3533 -2.96784,-26.94404 -8.90029,-37.77801 -5.93731,-10.903 -14.15136,-19.39414 -24.64053,-25.46671 -10.41975,-6.14155 -22.45905,-9.21118 -36.12275,-9.21118 h -12.62868 -20.80558 z m 270.38538,0 v 28.36396 h 44.50467 v 122.34239 h 34.9876 V 174.40924 h 45.3332 v -28.36396 h -45.3332 -34.9876 z m -71.85475,26.70838 c 6.34744,0 11.76157,1.71931 16.24563,5.16963 4.48567,3.4503 7.86689,8.5961 10.14363,15.42771 2.34779,6.76261 3.5233,15.14427 3.5233,25.15018 v 5.68904 c 0,9.86789 -1.14644,18.22117 -3.41512,25.05279 -2.27836,6.83163 -5.65957,12.0423 -10.14524,15.63063 -4.41624,3.51931 -9.80132,5.27512 -16.15036,5.27512 -6.48631,0 -11.97311,-1.75581 -16.45716,-5.27512 -4.41786,-3.58833 -7.79907,-8.799 -10.14525,-15.63063 -2.27997,-6.83162 -3.41673,-15.1849 -3.41673,-25.05279 v -5.68904 c 0,-10.00591 1.1303,-18.38757 3.41673,-25.15018 2.27513,-6.83161 5.62243,-11.97741 10.03867,-15.42771 4.41625,-3.45032 9.87236,-5.16963 16.3619,-5.16963 z m -419.00843,1.65558 h 23.0791 c 7.24683,0 12.66096,1.82879 16.25047,5.48613 3.58628,3.65733 5.38829,8.65715 5.38829,15.00571 0,4.27839 -0.83964,7.936 -2.49311,10.97227 -1.58242,3.03627 -3.9948,5.35169 -7.23876,6.93881 -3.24396,1.5871 -7.28559,2.37787 -12.11681,2.37787 h -22.86918 z m 255.66402,0 h 12.62868 c 7.45351,0 13.70084,1.65443 18.74036,4.96672 5.0379,3.2433 8.83248,8.10525 11.38373,14.59183 2.62391,6.4866 3.9286,14.5925 3.9286,24.32241 v 6.11102 c 0,9.66088 -1.30792,17.7668 -3.9286,24.3224 -2.55125,6.5556 -6.34583,11.49052 -11.38373,14.80281 -5.03952,3.31229 -11.25294,4.96675 -18.63541,4.96675 h -12.73363 z" />
      <path
         id="path24-1"
         style="font-variation-settings:normal;vector-effect:none;fill:url(#linearGradient81);fill-opacity:1;stroke:none;stroke-width:0.414766;stroke-linecap:butt;stroke-linejoin:miter;stroke-miterlimit:4;stroke-dasharray:none;stroke-dashoffset:0;stroke-opacity:1;-inkscape-stroke:none;paint-order:stroke fill markers;stop-color:#000000"
         d="m 178.20155,72.308073 -7.36808,23.27529 c -8.02565,3.47051 -16.05143,6.940957 -24.07605,10.413767 -8.51486,-1.79303 -17.05132,-3.87005 -25.67977,-4.91064 -1.36212,1.53269 -35.826304,54.53117 -35.816564,55.07877 1.58786,3.88768 4.31467,7.23194 6.377114,10.87004 l 125.35283,44.02719 125.35281,-44.02719 c 2.0625,-3.6381 4.78927,-6.98235 6.37713,-10.87004 0.008,-0.54751 -34.45446,-53.54608 -35.81657,-55.07877 -8.62846,1.04059 -17.16485,3.11761 -25.67978,4.91064 -8.02469,-3.47281 -16.05047,-6.943257 -24.07612,-10.413767 l -7.36801,-23.27529 z M 101.18491,183.04795 c -0.15527,-0.0477 -0.46785,0.18386 -0.47943,0.26216 -1.50988,12.31007 -4.46067,36.93854 -4.46067,36.93854 l 7.63789,33.01598 57.78454,26.24997 55.32344,-20.68637 55.32351,20.68637 57.78453,-26.24997 7.6379,-33.01598 c 0,0 -2.95079,-24.62847 -4.46067,-36.93854 -0.0136,-0.10487 -0.56523,-0.48486 -0.56523,-0.10077 -37.82805,13.44546 -77.28721,26.46699 -115.72038,39.72914 -38.43304,-13.26215 -77.89219,-26.28368 -115.72038,-39.72914 0,-0.096 -0.0341,-0.14437 -0.0858,-0.16139 z m 29.06121,29.42629 c 18.14901,6.25988 36.44667,12.47649 54.74351,18.69232 a 29.460817,29.452667 0 0 1 -1.38438,5.6291 29.460817,29.452667 0 0 1 -37.84134,17.42685 29.460817,29.452667 0 0 1 -17.43164,-37.83089 29.460817,29.452667 0 0 1 1.91385,-3.91738 z m 173.48981,0 a 29.460817,29.452667 0 0 1 1.91391,3.91737 29.460817,29.452667 0 0 1 -17.43179,37.83089 29.460817,29.452667 0 0 1 -37.84132,-17.42685 29.460817,29.452667 0 0 1 -1.38432,-5.6291 c 18.29684,-6.21583 36.59459,-12.43242 54.74352,-18.69231 z m -217.486314,20.89558 -13.87628,13.7464 20.787894,72.8737 65.70231,26.94315 -3.53528,-56.68958 L 93.02,261.25588 Z m 261.482874,0 -6.7705,27.88606 -62.30821,28.98761 -3.53527,56.68958 65.70231,-26.94315 20.78786,-72.87371 z m -130.74145,37.53598 -49.26913,19.49397 2.99056,61.23973 46.27857,18.84868 46.27855,-18.84868 2.99063,-61.23973 z"
         inkscape:label="Symbol" />
    </g>
  </g>
  <metadata
     id="metadata3">
    <rdf:RDF>
      <cc:Work
         rdf:about="">
        <dc:creator>
          <cc:Agent>
            <dc:title>A. Irsyad</dc:title>
          </cc:Agent>
        </dc:creator>
        <dc:description>Created for Redot Engine</dc:description>
      </cc:Work>
    </rdf:RDF>
  </metadata>
</svg>
